# xmcd
# 
# Track frame offsets:
#     150
#     134790
#     181702
# 
# Disc length: 3213
# 
# Revision: 3
# Processed by: cddbd v1.5.2PL0 Copyright (c) Steve Scherf et al.
# Submitted via: BonkEnc v1.0.8
# 
DISCID=240c8b03
DTITLE=Stephan Micus - Darkness And Light
DYEAR=1990
DGENRE=Contemporary Jazz
TTITLE0=Part 1
TTITLE1=Part 2
TTITLE2=Part 3
EXTD=
EXTT0=
EXTT1=
EXTT2=
PLAYORDER=
